<mxfile host="app.diagrams.net" modified="2024-06-13T13:57:01.143Z" agent="Mozilla/5.0 (Windows NT 10.0; Win64; x64) AppleWebKit/537.36 (KHTML, like Gecko) Chrome/125.0.0.0 Safari/537.36" etag="ADw44fB3ZTXxMp7Jhrxy" version="24.5.4" type="github">
  <diagram name="Page-1" id="N_PHp0yZ4Sq8n__6NGVH">
    <mxGraphModel dx="1434" dy="738" grid="1" gridSize="10" guides="1" tooltips="1" connect="1" arrows="1" fold="1" page="1" pageScale="1" pageWidth="1600" pageHeight="1200" background="none" math="0" shadow="0">
      <root>
        <mxCell id="0" />
        <mxCell id="1" parent="0" />
        <!-- Internet and Starlink Antenna -->
        <mxCell id="80VcaoIzCxCEsy03m5JN-1" value="Internet" style="shape=cloud;whiteSpace=wrap;html=1;pointerEvents=1;dashed=0;fillColor=#036897;strokeColor=#ffffff;strokeWidth=2;verticalLabelPosition=bottom;verticalAlign=top;align=center;outlineConnect=0;" vertex="1" parent="1">
          <mxGeometry x="40" y="20" width="100" height="60" as="geometry" />
        </mxCell>
        <mxCell id="80VcaoIzCxCEsy03m5JN-2" value="Starlink Antenna" style="shape=mxgraph.cisco.wireless.satellite_dish;sketch=0;html=1;pointerEvents=1;dashed=0;fillColor=#036897;strokeColor=#ffffff;strokeWidth=2;verticalLabelPosition=bottom;verticalAlign=top;align=center;outlineConnect=0;" vertex="1" parent="1">
          <mxGeometry x="40" y="100" width="99" height="74" as="geometry" />
        </mxCell>
        <mxCell id="80VcaoIzCxCEsy03m5JN-3" value="Router" style="shape=mxgraph.cisco.routers.wireless_router;sketch=0;html=1;pointerEvents=1;dashed=0;fillColor=#036897;strokeColor=#ffffff;strokeWidth=2;verticalLabelPosition=bottom;verticalAlign=top;align=center;outlineConnect=0;" vertex="1" parent="1">
          <mxGeometry x="240" y="100" width="78" height="77" as="geometry" />
        </mxCell>
        <mxCell id="80VcaoIzCxCEsy03m5JN-4" value="Switch" style="shape=mxgraph.cisco.switches.workgroup_switch;sketch=0;html=1;pointerEvents=1;dashed=0;fillColor=#036897;strokeColor=#ffffff;strokeWidth=2;verticalLabelPosition=bottom;verticalAlign=top;align=center;outlineConnect=0;" vertex="1" parent="1">
          <mxGeometry x="400" y="100" width="101" height="50" as="geometry" />
        </mxCell>
        <!-- Desktop/Workstation -->
        <mxCell id="80VcaoIzCxCEsy03m5JN-5" value="Desktop/Workstation" style="shape=mxgraph.cisco.computers_and_peripherals.workstation;sketch=0;html=1;pointerEvents=1;dashed=0;fillColor=#036897;strokeColor=#ffffff;strokeWidth=2;verticalLabelPosition=bottom;verticalAlign=top;align=center;outlineConnect=0;" vertex="1" parent="1">
          <mxGeometry x="40" y="240" width="83" height="62" as="geometry" />
        </mxCell>
        <!-- Proxmox Nodes -->
        <mxCell id="80VcaoIzCxCEsy03m5JN-6" value="Proxmox Node 1: devinprox001" style="shape=rectangle;whiteSpace=wrap;html=1;" vertex="1" parent="1">
          <mxGeometry x="240" y="240" width="150" height="100" as="geometry" />
        </mxCell>
        <mxCell id="80VcaoIzCxCEsy03m5JN-7" value="Proxmox Node 2: devinprox002" style="shape=rectangle;whiteSpace=wrap;html=1;" vertex="1" parent="1">
          <mxGeometry x="400" y="240" width="150" height="100" as="geometry" />
        </mxCell>
        <!-- Services on Proxmox Node 1 -->
        <mxCell id="80VcaoIzCxCEsy03m5JN-8" value="100 homeassistant\n103 wazuh\n105 torrent" style="text;html=1;" vertex="1" parent="80VcaoIzCxCEsy03m5JN-6">
          <mxGeometry x="10" y="40" width="130" height="60" as="geometry" />
        </mxCell>
        <!-- Services on Proxmox Node 2 -->
        <mxCell id="80VcaoIzCxCEsy03m5JN-9" value="101 octoprint\n102 nas001\n106 plex" style="text;html=1;" vertex="1" parent="80VcaoIzCxCEsy03m5JN-7">
          <mxGeometry x="10" y="40" width="130" height="60" as="geometry" />
        </mxCell>
        <!-- TrueNAS NAS -->
        <mxCell id="80VcaoIzCxCEsy03m5JN-10" value="TrueNAS NAS" style="shape=mxgraph.cisco.servers.standard_host;sketch=0;html=1;pointerEvents=1;dashed=0;fillColor=#036897;strokeColor=#ffffff;strokeWidth=2;verticalLabelPosition=bottom;verticalAlign=top;align=center;outlineConnect=0;" vertex="1" parent="1">
          <mxGeometry x="560" y="240" width="83" height="62" as="geometry" />
        </mxCell>
        <!-- Connections -->
        <mxCell id="conn1" style="edgeStyle=orthogonalEdgeStyle;rounded=0;orthogonalLoop=1;jettySize=auto;html=1;" edge="1" parent="1" source="80VcaoIzCxCEsy03m5JN-1" target="80VcaoIzCxCEsy03m5JN-2">
          <mxGeometry relative="1" as="geometry" />
        </mxCell>
        <mxCell id="conn2" style="edgeStyle=orthogonalEdgeStyle;rounded=0;orthogonalLoop=1;jettySize=auto;html=1;" edge="1" parent="1" source="80VcaoIzCxCEsy03m5JN-2" target="80VcaoIzCxCEsy03m5JN-3">
          <mxGeometry relative="1" as="geometry" />
        </mxCell>
        <mxCell id="conn3" style="edgeStyle=orthogonalEdgeStyle;rounded=0;orthogonalLoop=1;jettySize=auto;html=1;" edge="1" parent="1" source="80VcaoIzCxCEsy03m5JN-3" target="80VcaoIzCxCEsy03m5JN-4">
          <mxGeometry relative="1" as="geometry" />
        </mxCell>
        <mxCell id="conn4" style="edgeStyle=orthogonalEdgeStyle;rounded=0;orthogonalLoop=1;jettySize=auto;html=1;" edge="1" parent="1" source="80VcaoIzCxCEsy03m5JN-3" target="80VcaoIzCxCEsy03m5JN-5">
          <mxGeometry relative="1" as="geometry" />
        </mxCell>
        <mxCell id="conn5" style="edgeStyle=orthogonalEdgeStyle;rounded=0;orthogonalLoop=1;jettySize=auto;html=1;" edge="1" parent="1" source="80VcaoIzCxCEsy03m5JN-3" target="80VcaoIzCxCEsy03m5JN-6">
          <mxGeometry relative="1" as="geometry" />
        </mxCell>
        <mxCell id="conn6" style="edgeStyle=orthogonalEdgeStyle;rounded=0;orthogonalLoop=1;jettySize=auto;html=1;" edge="1" parent="1" source="80VcaoIzCxCEsy03m5JN-3" target="80VcaoIzCxCEsy03m5JN-7">
          <mxGeometry relative="1" as="geometry" />
        </mxCell>
        <mxCell id="conn7" style="edgeStyle=orthogonalEdgeStyle;rounded=0;orthogonalLoop=1;jettySize=auto;html=1;" edge="1" parent="1" source="80VcaoIzCxCEsy03m5JN-3" target="80VcaoIzCxCEsy03m5JN-10">
          <mxGeometry relative="1" as="geometry" />
        </mxCell>
        <!-- IP Addresses and Labels -->
        <mxCell id="80VcaoIzCxCEsy03m5JN-14" value="devinprox001" style="text;html=1;align=center;verticalAlign=middle;whiteSpace=wrap;rounded=0;" vertex="1" parent="1">
          <mxGeometry x="300" y="260" width="60" height="30" as="geometry" />
        </mxCell>
        <mxCell id="80VcaoIzCxCEsy03m5JN-15" value="devinprox002" style="text;html=1;align=center;verticalAlign=middle;whiteSpace=wrap;rounded=0;" vertex="1" parent="1">
          <mxGeometry x="460" y="260" width="60" height="30" as="geometry" />
        </mxCell>
        <mxCell id="80VcaoIzCxCEsy03m5JN-66" value="192.168.1.11" style="text;html=1;align=center;verticalAlign=middle;whiteSpace=wrap;rounded=0;" vertex="1" parent="1">
          <mxGeometry x="300" y="300" width="60" height="30" as="geometry" />
        </mxCell>
        <mxCell id="80VcaoIzCxCEsy03m5JN-67" value="192.168.1.12" style="text;html=1;align=center;verticalAlign=middle;whiteSpace=wrap;rounded=0;" vertex="1" parent="1">
          <mxGeometry x="460" y="300" width="60" height="30" as="geometry" />
        </mxCell>
        <mxCell id="80VcaoIzCxCEsy03m5JN-78" value="192.168.1.1" style="text;html=1;align=center;verticalAlign=middle;whiteSpace=wrap;rounded=0;" vertex="1" parent="1">
          <mxGeometry x="249" y="10" width="60" height="30" as="geometry" />
        </mxCell>
        <mxCell id="80VcaoIzCxCEsy03m5JN-85" value="truenas" style="text;html=1;align=left;verticalAlign=middle;whiteSpace=wrap;rounded=0;" vertex="1" parent="1">
          <mxGeometry x="620" y="242" width="60" height="30" as="geometry" />
        </mxCell>
        <mxCell id="80VcaoIzCxCEsy03m5JN-86" value="192.168.1.30" style="text;html=1;align=left;verticalAlign=middle;whiteSpace=wrap;rounded=0;" vertex="1" parent="1">
          <mxGeometry x="620" y="270" width="60" height="30" as="geometry" />
        </mxCell>
        <mxCell id="80VcaoIzCxCEsy03m5JN-78" value="192.168.1.21" style="text;html=1;align=center;verticalAlign=middle;whiteSpace=wrap;rounded=0;" vertex="1" parent="1">
          <mxGeometry x="40" y="310" width="60" height="30" as="geometry" />
        </mxCell>
      </root>
    </mxGraphModel>
  </diagram>
</mxfile>
